<svg width="280" height="280" viewBox="0 0 280 280" fill="none" xmlns="http://www.w3.org/2000/svg">
<circle cx="140" cy="159" r="75" transform="rotate(-29.6324 140 159)" fill="#555454"/>
<path d="M177.083 224.191C213.087 203.711 225.671 157.922 205.191 121.917L74.8089 196.083C95.289 232.087 141.078 244.671 177.083 224.191Z" fill="#2F2F2F"/>
<path d="M164.235 216.252L151.091 200.504C147.454 201.413 143.734 201.868 139.931 201.868C131.83 201.868 124.39 199.967 117.611 196.164C110.833 192.361 105.459 187.112 101.491 180.416C97.5232 173.637 95.5392 165.991 95.5392 157.476C95.5392 149.044 97.5232 141.48 101.491 134.784C105.459 128.005 110.833 122.715 117.611 118.912C124.39 115.109 131.83 113.208 139.931 113.208C148.115 113.208 155.555 115.109 162.251 118.912C169.03 122.715 174.362 128.005 178.247 134.784C182.215 141.48 184.199 149.044 184.199 157.476C184.199 165.164 182.546 172.191 179.239 178.556C176.015 184.839 171.593 189.964 165.971 193.932L185.811 216.252L164.235 216.252ZM113.395 157.476C113.395 163.263 114.511 168.347 116.743 172.728C118.975 177.109 122.075 180.499 126.043 182.896C130.094 185.211 134.723 186.368 139.931 186.368C145.139 186.368 149.727 185.211 153.695 182.896C157.663 180.499 160.763 177.109 162.995 172.728C165.227 168.347 166.343 163.263 166.343 157.476C166.343 151.689 165.227 146.647 162.995 142.348C160.763 137.967 157.663 134.619 153.695 132.304C149.727 129.989 145.139 128.832 139.931 128.832C134.723 128.832 130.094 129.989 126.043 132.304C122.075 134.619 118.975 137.967 116.743 142.348C114.511 146.647 113.395 151.689 113.395 157.476Z" fill="white"/>
</svg>
