<svg width="641" height="227" viewBox="0 0 641 227" fill="none" xmlns="http://www.w3.org/2000/svg">
<rect width="641" height="227" fill="black"/>
<path d="M171.392 175.744L157.824 159.488C154.069 160.427 150.229 160.896 146.304 160.896C137.941 160.896 130.261 158.933 123.264 155.008C116.267 151.083 110.72 145.664 106.624 138.752C102.528 131.755 100.48 123.861 100.48 115.072C100.48 106.368 102.528 98.56 106.624 91.648C110.72 84.6507 116.267 79.1893 123.264 75.264C130.261 71.3387 137.941 69.376 146.304 69.376C154.752 69.376 162.432 71.3387 169.344 75.264C176.341 79.1893 181.845 84.6507 185.856 91.648C189.952 98.56 192 106.368 192 115.072C192 123.008 190.293 130.261 186.88 136.832C183.552 143.317 178.987 148.608 173.184 152.704L193.664 175.744H171.392ZM118.912 115.072C118.912 121.045 120.064 126.293 122.368 130.816C124.672 135.339 127.872 138.837 131.968 141.312C136.149 143.701 140.928 144.896 146.304 144.896C151.68 144.896 156.416 143.701 160.512 141.312C164.608 138.837 167.808 135.339 170.112 130.816C172.416 126.293 173.568 121.045 173.568 115.072C173.568 109.099 172.416 103.893 170.112 99.456C167.808 94.9333 164.608 91.4773 160.512 89.088C156.416 86.6987 151.68 85.504 146.304 85.504C140.928 85.504 136.149 86.6987 131.968 89.088C127.872 91.4773 124.672 94.9333 122.368 99.456C120.064 103.893 118.912 109.099 118.912 115.072ZM223.246 70.656V125.952C223.246 132.011 224.825 136.661 227.982 139.904C231.139 143.061 235.577 144.64 241.294 144.64C247.097 144.64 251.577 143.061 254.734 139.904C257.891 136.661 259.47 132.011 259.47 125.952V70.656H277.518V125.824C277.518 133.419 275.854 139.861 272.526 145.152C269.283 150.357 264.889 154.283 259.342 156.928C253.881 159.573 247.779 160.896 241.038 160.896C234.382 160.896 228.323 159.573 222.862 156.928C217.486 154.283 213.219 150.357 210.062 145.152C206.905 139.861 205.326 133.419 205.326 125.824V70.656H223.246ZM312.752 70.656V160H294.832V70.656H312.752ZM348.761 144.896H388.953V160H328.025V146.176L367.961 85.76H328.025V70.656H388.953V84.48L348.761 144.896ZM422.127 145.792H451.567V160H404.207V70.656H422.127V145.792ZM480.877 85.12V107.52H510.957V121.728H480.877V145.408H514.797V160H462.957V70.528H514.797V85.12H480.877Z" fill="white"/>
<path d="M533.5 160H531.68L524.36 148.9V160H522.54V146.04H524.36L531.68 157.12V146.04H533.5V160ZM546.603 154.1C546.603 154.447 546.583 154.813 546.543 155.2H537.783C537.849 156.28 538.216 157.127 538.883 157.74C539.563 158.34 540.383 158.64 541.343 158.64C542.129 158.64 542.783 158.46 543.303 158.1C543.836 157.727 544.209 157.233 544.423 156.62H546.383C546.089 157.673 545.503 158.533 544.623 159.2C543.743 159.853 542.649 160.18 541.343 160.18C540.303 160.18 539.369 159.947 538.543 159.48C537.729 159.013 537.089 158.353 536.623 157.5C536.156 156.633 535.923 155.633 535.923 154.5C535.923 153.367 536.149 152.373 536.603 151.52C537.056 150.667 537.689 150.013 538.503 149.56C539.329 149.093 540.276 148.86 541.343 148.86C542.383 148.86 543.303 149.087 544.103 149.54C544.903 149.993 545.516 150.62 545.943 151.42C546.383 152.207 546.603 153.1 546.603 154.1ZM544.723 153.72C544.723 153.027 544.569 152.433 544.263 151.94C543.956 151.433 543.536 151.053 543.003 150.8C542.483 150.533 541.903 150.4 541.263 150.4C540.343 150.4 539.556 150.693 538.903 151.28C538.263 151.867 537.896 152.68 537.803 153.72H544.723ZM563.605 149.04L560.185 160H558.305L555.665 151.3L553.025 160H551.145L547.705 149.04H549.565L552.085 158.24L554.805 149.04H556.665L559.325 158.26L561.805 149.04H563.605ZM569.291 160.18C568.451 160.18 567.698 160.04 567.031 159.76C566.364 159.467 565.838 159.067 565.451 158.56C565.064 158.04 564.851 157.447 564.811 156.78H566.691C566.744 157.327 566.998 157.773 567.451 158.12C567.918 158.467 568.524 158.64 569.271 158.64C569.964 158.64 570.511 158.487 570.911 158.18C571.311 157.873 571.511 157.487 571.511 157.02C571.511 156.54 571.298 156.187 570.871 155.96C570.444 155.72 569.784 155.487 568.891 155.26C568.078 155.047 567.411 154.833 566.891 154.62C566.384 154.393 565.944 154.067 565.571 153.64C565.211 153.2 565.031 152.627 565.031 151.92C565.031 151.36 565.198 150.847 565.531 150.38C565.864 149.913 566.338 149.547 566.951 149.28C567.564 149 568.264 148.86 569.051 148.86C570.264 148.86 571.244 149.167 571.991 149.78C572.738 150.393 573.138 151.233 573.191 152.3H571.371C571.331 151.727 571.098 151.267 570.671 150.92C570.258 150.573 569.698 150.4 568.991 150.4C568.338 150.4 567.818 150.54 567.431 150.82C567.044 151.1 566.851 151.467 566.851 151.92C566.851 152.28 566.964 152.58 567.191 152.82C567.431 153.047 567.724 153.233 568.071 153.38C568.431 153.513 568.924 153.667 569.551 153.84C570.338 154.053 570.978 154.267 571.471 154.48C571.964 154.68 572.384 154.987 572.731 155.4C573.091 155.813 573.278 156.353 573.291 157.02C573.291 157.62 573.124 158.16 572.791 158.64C572.458 159.12 571.984 159.5 571.371 159.78C570.771 160.047 570.078 160.18 569.291 160.18Z" fill="white"/>
</svg>
